<?xml version="1.0" encoding="UTF-8"?>
<svg xmlns="http://www.w3.org/2000/svg" width="2000" height="1190" viewBox="0 0 2000 1190" role="img" aria-label="ClaimBound Evidence Card">
  <defs>
    <linearGradient id="greenGrad" x1="0" y1="0" x2="1" y2="0">
      <stop offset="0%" stop-color="#0fbaaa"/>
      <stop offset="100%" stop-color="#0a9f93"/>
    </linearGradient>
    <linearGradient id="yellowGrad" x1="0" y1="0" x2="1" y2="0">
      <stop offset="0%" stop-color="#fbbf24"/>
      <stop offset="100%" stop-color="#d97706"/>
    </linearGradient>
    <linearGradient id="amberGrad" x1="0" y1="0" x2="1" y2="0">
      <stop offset="0%" stop-color="#f97316"/>
      <stop offset="100%" stop-color="#c2410c"/>
    </linearGradient>
    <linearGradient id="redGrad" x1="0" y1="0" x2="1" y2="0">
      <stop offset="0%" stop-color="#ef4444"/>
      <stop offset="100%" stop-color="#b91c1c"/>
    </linearGradient>
    <linearGradient id="grayGrad" x1="0" y1="0" x2="1" y2="0">
      <stop offset="0%" stop-color="#64748b"/>
      <stop offset="100%" stop-color="#475569"/>
    </linearGradient>
    <linearGradient id="blueGrad" x1="0" y1="0" x2="1" y2="0">
      <stop offset="0%" stop-color="#1f64f2"/>
      <stop offset="100%" stop-color="#1758d6"/>
    </linearGradient>
    <linearGradient id="logoRingBlue" x1="73" y1="453" x2="348" y2="793" gradientUnits="userSpaceOnUse">
      <stop offset="0" stop-color="#1E64BA"/>
      <stop offset="0.55" stop-color="#0C75C8"/>
      <stop offset="1" stop-color="#0A5FAB"/>
    </linearGradient>
    <linearGradient id="logoRingTeal" x1="221" y1="792" x2="403" y2="594" gradientUnits="userSpaceOnUse">
      <stop offset="0" stop-color="#18B7A3"/>
      <stop offset="1" stop-color="#089EBC"/>
    </linearGradient>
    <linearGradient id="logoSignalGradient" x1="61" y1="628" x2="404" y2="628" gradientUnits="userSpaceOnUse">
      <stop offset="0" stop-color="#1E64BA"/>
      <stop offset="0.43" stop-color="#0877C4"/>
      <stop offset="0.72" stop-color="#0A97BB"/>
      <stop offset="1" stop-color="#14B69E"/>
    </linearGradient>
  </defs>
  <rect x="0" y="0" width="2000" height="1190" fill="#eef3f8"/>
  <rect x="44" y="44" width="1912" height="1102" rx="34" fill="#ffffff" stroke="#cfd7e3" stroke-width="3"/>
  <path d="M70 158 H1930" stroke="#d7dde7" stroke-width="3"/>
  <text x="70" y="93" font-family="Inter, Segoe UI, Arial, sans-serif" font-size="50" font-weight="750" fill="#0d1736">ClaimBound Evidence Card</text>
  <text x="73" y="129" font-family="Inter, Segoe UI, Arial, sans-serif" font-size="23" font-weight="400" fill="#55627a">Protocol-bound, reproducible evidence summary</text>
  <g aria-label="ClaimBound evidence logo" transform="translate(1415,52) scale(0.33) translate(-40,-478)">
    <g stroke-linecap="butt" stroke-linejoin="round">
      <g stroke="#CBD3DC" stroke-width="3.2" stroke-linecap="round" stroke-dasharray="10 12" opacity="0.72">
        <path d="M130 507V714"/><path d="M162 490V719"/><path d="M199 491V719"/>
        <path d="M230 471V726"/><path d="M276 521V690"/><path d="M327 508V650"/>
        <path d="M128 520H277"/><path d="M128 595H327"/><path d="M128 672H355"/>
      </g>
      <path d="M342.6 514.3A160 160 0 1 0 230 787" fill="none" stroke="url(#logoRingBlue)" stroke-width="23"/>
      <path d="M230 787A160 160 0 0 0 388.4 649.3" fill="none" stroke="url(#logoRingTeal)" stroke-width="23"/>
      <path d="M63 629.5C87 616.4 104.3 613.6 121.2 632.2C140.7 653.8 153.4 651.6 162.1 616.2C173.8 568.5 182.5 527.5 198.9 527.5C217.5 527.5 228.4 590.6 240.3 630.8C253.4 675.4 268.6 682.8 284.6 641.5C303.5 592.9 315.2 567.6 333.7 574.7C352.6 582 355.7 635.1 376.6 634.9C386.2 634.8 394 630.4 402 626.8" fill="none" stroke="url(#logoSignalGradient)" stroke-width="11.5" stroke-linecap="round"/>
      <path d="M284 684.5L307.5 707.7L353 657" fill="none" stroke="#12B4A4" stroke-width="10.5" stroke-linecap="square"/>
    </g>
    <text x="428" y="633" font-family="Inter, Segoe UI, Arial, sans-serif" font-size="124" font-weight="750" fill="#082F59" text-rendering="geometricPrecision">Claim</text>
    <text x="792" y="633" font-family="Inter, Segoe UI, Arial, sans-serif" font-size="124" font-weight="750" fill="#0E73CC" text-rendering="geometricPrecision">Bound</text>
    <line x1="436" y1="700" x2="514" y2="700" stroke="#11AFA9" stroke-width="4"/>
    <text x="542" y="717" font-family="Inter, Segoe UI, Arial, sans-serif" font-size="38" font-weight="500" letter-spacing="13" fill="#082F59">evidence</text>
    <line x1="1120" y1="700" x2="1194" y2="700" stroke="#11AFA9" stroke-width="4"/>
  </g>
  <text x="70" y="175" font-family="Inter, Segoe UI, Arial, sans-serif" font-size="16" font-weight="650" fill="#536174">Result status</text>
  <rect x="70" y="193" width="430" height="52" rx="17" fill="url(#greenGrad)"/>
  <text x="91" y="227" font-family="Inter, Segoe UI, Arial, sans-serif" font-size="21" font-weight="800" fill="#ffffff">PASSED_UNDER_PROTOCOL</text>
  <text x="520" y="175" font-family="Inter, Segoe UI, Arial, sans-serif" font-size="16" font-weight="650" fill="#536174">Validity</text>
  <rect x="520" y="193" width="370" height="52" rx="17" fill="url(#greenGrad)"/>
  <text x="541" y="227" font-family="Inter, Segoe UI, Arial, sans-serif" font-size="21" font-weight="800" fill="#ffffff">GREEN_VALIDATED</text>
  <text x="910" y="175" font-family="Inter, Segoe UI, Arial, sans-serif" font-size="16" font-weight="650" fill="#536174">Reproduction</text>
  <rect x="910" y="193" width="480" height="52" rx="17" fill="url(#blueGrad)"/>
  <text x="931" y="227" font-family="Inter, Segoe UI, Arial, sans-serif" font-size="21" font-weight="800" fill="#ffffff">not independently reproduced</text>
  <text x="1410" y="175" font-family="Inter, Segoe UI, Arial, sans-serif" font-size="16" font-weight="650" fill="#536174">Record type</text>
  <rect x="1410" y="193" width="520" height="52" rx="17" fill="url(#blueGrad)"/>
  <text x="1431" y="227" font-family="Inter, Segoe UI, Arial, sans-serif" font-size="21" font-weight="800" fill="#ffffff">evidence_result</text>
  <rect x="70" y="278" width="1860" height="96" rx="16" fill="#f8fbff" stroke="#1758d6" stroke-width="4"/>
  <text x="96" y="309" font-family="Inter, Segoe UI, Arial, sans-serif" font-size="20" font-weight="750" fill="#1758d6">Allowed narrow claim</text>
  <text x="96" y="351" font-family="Inter, Segoe UI, Arial, sans-serif" font-size="39" font-weight="800" fill="#0d1736">Under frozen SOFTWARE_DEV_D001, the regression gate passed: validator rejects card</text>
  <text x="96" y="393" font-family="Inter, Segoe UI, Arial, sans-serif" font-size="39" font-weight="800" fill="#0d1736">JSON missing execution_mode.</text>
  <rect x="70" y="420" width="920" height="106" rx="14" fill="#ffffff" stroke="#d8dee9" stroke-width="3"/>
  <text x="92" y="449" font-family="Inter, Segoe UI, Arial, sans-serif" font-size="19" font-weight="750" fill="#1758d6">Evidence ID</text>
  <text x="92" y="478" font-family="SFMono-Regular, Consolas, Liberation Mono, monospace" font-size="18" font-weight="600" fill="#111827">CLAIMBOUND-SOFTWARE_DEV_D001-2026-06-11</text>
  <rect x="1010" y="420" width="920" height="106" rx="14" fill="#ffffff" stroke="#d8dee9" stroke-width="3"/>
  <text x="1032" y="449" font-family="Inter, Segoe UI, Arial, sans-serif" font-size="19" font-weight="750" fill="#1758d6">Protocol</text>
  <text x="1032" y="478" font-family="SFMono-Regular, Consolas, Liberation Mono, monospace" font-size="18" font-weight="600" fill="#111827">SOFTWARE_DEV_D001</text>
  <rect x="70" y="542" width="920" height="114" rx="14" fill="#ffffff" stroke="#d8dee9" stroke-width="3"/>
  <text x="92" y="571" font-family="Inter, Segoe UI, Arial, sans-serif" font-size="19" font-weight="750" fill="#1758d6">Official Source</text>
  <text x="92" y="600" font-family="Inter, Segoe UI, Arial, sans-serif" font-size="22" font-weight="600" fill="#111827">ClaimBound evidence repository</text>
  <text x="92" y="626" font-family="Inter, Segoe UI, Arial, sans-serif" font-size="22" font-weight="600" fill="#111827">https://github.com/ClaimBound/claimbound-evidence</text>
  <rect x="1010" y="542" width="920" height="114" rx="14" fill="#ffffff" stroke="#d8dee9" stroke-width="3"/>
  <text x="1032" y="571" font-family="Inter, Segoe UI, Arial, sans-serif" font-size="19" font-weight="750" fill="#1758d6">Target / Candidate</text>
  <text x="1032" y="600" font-family="Inter, Segoe UI, Arial, sans-serif" font-size="22" font-weight="600" fill="#111827">validator regression gate</text>
  <text x="1032" y="626" font-family="Inter, Segoe UI, Arial, sans-serif" font-size="22" font-weight="600" fill="#111827">Evidence-card JSON missing execution_mode.</text>
  <rect x="70" y="672" width="920" height="114" rx="14" fill="#ffffff" stroke="#d8dee9" stroke-width="3"/>
  <text x="92" y="701" font-family="Inter, Segoe UI, Arial, sans-serif" font-size="19" font-weight="750" fill="#1758d6">Controls / Gate</text>
  <text x="92" y="730" font-family="Inter, Segoe UI, Arial, sans-serif" font-size="22" font-weight="600" fill="#111827">pytest missing-field regression + validate-all.</text>
  <rect x="1010" y="672" width="920" height="114" rx="14" fill="#ffffff" stroke="#d8dee9" stroke-width="3"/>
  <text x="1032" y="701" font-family="Inter, Segoe UI, Arial, sans-serif" font-size="19" font-weight="750" fill="#1758d6">Period / Scope / Date</text>
  <text x="1032" y="730" font-family="Inter, Segoe UI, Arial, sans-serif" font-size="22" font-weight="600" fill="#111827">repository state at access date 2026-06-11</text>
  <text x="1032" y="756" font-family="Inter, Segoe UI, Arial, sans-serif" font-size="22" font-weight="600" fill="#111827">Access date: 2026-06-11</text>
  <rect x="70" y="802" width="920" height="114" rx="14" fill="#ffffff" stroke="#d8dee9" stroke-width="3"/>
  <text x="92" y="831" font-family="Inter, Segoe UI, Arial, sans-serif" font-size="19" font-weight="750" fill="#1758d6">Artifact / Report</text>
  <text x="92" y="860" font-family="Inter, Segoe UI, Arial, sans-serif" font-size="22" font-weight="600" fill="#111827">artifacts/software_dev_d001_summary.json</text>
  <text x="92" y="886" font-family="Inter, Segoe UI, Arial, sans-serif" font-size="22" font-weight="600" fill="#111827">artifacts/software_dev_d001_summary.json</text>
  <rect x="1010" y="802" width="920" height="114" rx="14" fill="#ffffff" stroke="#d8dee9" stroke-width="3"/>
  <text x="1032" y="831" font-family="Inter, Segoe UI, Arial, sans-serif" font-size="19" font-weight="750" fill="#1758d6">Evidence URL</text>
  <text x="1032" y="860" font-family="SFMono-Regular, Consolas, Liberation Mono, monospace" font-size="18" font-weight="600" fill="#111827">docs/evidence_cards/CLAIMBOUND-SOFTWARE_DEV_D001-2026-06-11.json</text>
  <rect x="70" y="936" width="1860" height="186" rx="14" fill="#fbfcfe" stroke="#d8dee9" stroke-width="3"/>
  <text x="92" y="966" font-family="Inter, Segoe UI, Arial, sans-serif" font-size="19" font-weight="750" fill="#1758d6">Claim boundary</text>
  <text x="92" y="993" font-family="Inter, Segoe UI, Arial, sans-serif" font-size="20" font-weight="500" fill="#1f2937">This card verifies only that, on the access date, the ClaimBound evidence-card validator rejects a card JSON missing the required field execution_mode when</text>
  <text x="92" y="1017" font-family="Inter, Segoe UI, Arial, sans-serif" font-size="20" font-weight="500" fill="#1f2937">exercised by the frozen pytest gate named in protocol SOFTWARE_DEV_D001. It does not prove general software security, complete validator coverage, CI sufficiency,</text>
  <text x="92" y="1041" font-family="Inter, Segoe UI, Arial, sans-serif" font-size="20" font-weight="500" fill="#1f2937">code-review replacement or deployment readiness.</text>
  <text x="92" y="1075" font-family="Inter, Segoe UI, Arial, sans-serif" font-size="17" font-weight="500" fill="#55627a">Limitations: 1. Single-operator manual check only. 2. One required-field regression gate only. 3. Does not audit the entire validator or all card fields. 4. Does not replace tests, CI, code</text>
  <text x="92" y="1095" font-family="Inter, Segoe UI, Arial, sans-serif" font-size="17" font-weight="500" fill="#55627a">review or security audit.</text>
</svg>
